<?xml version="1.0" encoding="utf-8"?>
<!-- Generator: Adobe Illustrator 20.1.0, SVG Export Plug-In . SVG Version: 6.00 Build 0)  -->
<svg version="1.1" id="Layer_1" xmlns="http://www.w3.org/2000/svg" xmlns:xlink="http://www.w3.org/1999/xlink" x="0px" y="0px"
	 viewBox="0 0 213.3 59" style="enable-background:new 0 0 213.3 59;" xml:space="preserve">
<style type="text/css">
	.st0{fill:#242424;}
	.st1{fill:#FF8A00;}
</style>
<path class="st0" d="M85,26.9c4.3,0,7.8-2.2,10-4.6l-3.9-4.2c-0.3,0.3-2.5,3.2-5.3,3.2c-3.1,0-4.8-2.9-4.8-6.1
	c0-3.6,1.6-6.4,3.9-6.4c2.3,0,3.4,2.2,3.5,4.2H94V3h-4.8l-0.8,2.1C88.1,4.7,86.7,3,83.3,3c-4.3,0-10,4.6-10,12.1
	C73.3,22.4,78,26.9,85,26.9z M106,22h-2V2h-8v4h2v16h-2v4h10V22z M115.3,26.9c3.4,0,6.1-0.8,8.5-2.8l-2.8-3.2
	c-1.8,1.5-3.5,1.7-4.6,1.7c-2.8,0-3.2-1.6-3.4-2.6h10.4c0.7-2,0.3-4.5-0.1-5.6c-1-2.7-4-4.8-7.9-4.8c-5,0-8.9,3.2-8.9,8.5
	C106.6,24.4,111.2,26.9,115.3,26.9z M115.7,14.4c2.1,0,2.4,0.6,2.4,2.6h-5C113.2,16,113.7,14.4,115.7,14.4z M131.7,15.5
	c-3.7,0-6.9,2.3-6.9,6c0,3.8,3.4,5.5,6.5,5.5c1.2,0,3.2-0.6,4.5-2.3l0.8,1.3h7.4v-4h-2v-6.2c0-5.3-5.1-6.7-9.1-6.7
	c-3,0-6,1.5-7.3,2.3l1.4,3.8c1.3-0.7,3-1.5,4.9-1.5c1.8,0,3.1,0.4,3.1,1.8v1.1C135,16.4,133.7,15.5,131.7,15.5z M135,21.6
	c0,0.5-1.1,1.1-2.1,1.1c-1,0-1.8-0.6-1.8-1.5c0-1,0.6-1.7,1.9-1.7c1.4,0,2,0.8,2,0.9V21.6z M155,22h-2v-4.6c0-1.4,0.4-3,2.1-3
	c1.9,0,1.9,1.9,1.9,3V26h8v-4h-1v-5.4c0-3.4-1.1-7.2-6.2-7.2c-2.1,0-3.7,1.1-4.8,2.6l-0.9-2H145v4h1v8h-1v4h10V22z M174.5,26.9
	c3.4,0,6.1-0.8,8.5-2.8l-2.8-3.2c-1.8,1.5-3.5,1.7-4.6,1.7c-2.8,0-3.2-1.6-3.4-2.6h10.4c0.7-2,0.3-4.5-0.1-5.6c-1-2.7-4-4.8-7.9-4.8
	c-5,0-8.9,3.2-8.9,8.5C165.7,24.4,170.4,26.9,174.5,26.9z M174.8,14.4c2.1,0,2.4,0.6,2.4,2.6h-5C172.3,16,172.8,14.4,174.8,14.4z
	 M191.7,12.1l-1.2-2.1H184v4h2v8h-2v4h10v-4h-2v-3.3c0-2.9,2-3.6,5-3.6V9.2C193,9.2,192.6,10.5,191.7,12.1z M208,16.6
	c-2.1-0.7-4.1-1.1-4.1-2c0-0.8,0.6-1.1,1.3-1.1c1.7,0,3.4,1.5,3.4,2.5h4.4v-6h-4.2l-0.3,2.2c-0.7-1.4-2.7-2.6-4.9-2.6
	c-2.3,0-5.8,1.4-5.8,4.7c0,3.1,2.1,4.4,4.4,5.2c2.4,0.8,4.9,1,4.9,2c0,0.9-0.8,0.9-1.5,0.9c-1,0-3.5-0.4-3.5-2.4H198v6h3.8l0.3-1.8
	c0.8,1.2,2.7,2.5,5.1,2.5c3.2,0,6.1-1.8,6.1-4.9C213.3,18.4,210.5,17.5,208,16.6z M87,52h-5V38h2v-5H74v5h1v14h-1v4h18v-8h-5V52z
	 M102.4,39.3c-4.6,0-9,3-9.1,8.5c-0.1,5.8,4.5,8.7,9.2,8.7c5,0,9.1-3.1,9-8.5C111.5,42.5,107.6,39.4,102.4,39.3z M102.5,52.3
	c-1.4,0-2.4-1.8-2.4-4.4c0-2.4,1-4.3,2.3-4.3c1.6,0,2.4,1.9,2.4,4.4C104.8,50.4,104,52.3,102.5,52.3z M131,46.3
	c0-3.4-0.7-7.2-5.8-7.2c-2.1,0-3.5,1.2-4.7,2.7l-0.7-1.9H113v4h1v8h-1v4h10v-4h-2v-4.8c0-1.4-0.1-3,1.6-3c1.9,0,1.4,1.9,1.4,3V56h9
	v-4h-2V46.3z M152,32h-8v4h1v4.7c0-0.4-1.6-1.2-3.9-1.2c-4.1,0-7.5,3.2-7.5,8.3c0,4.5,3.1,8.6,7.7,8.6c2.3,0,3.8-1.2,4.2-1.6L146,56
	h8v-4h-2V32z M143.1,51.8c-1.5,0-2.4-2.1-2.4-4c0-2.5,1-4.1,2.3-4.1c1.3,0,2.4,1.7,2.4,3.9C145.6,50.2,144.4,51.8,143.1,51.8z
	 M163.7,39.3c-4.6,0-9,3-9.1,8.5c-0.1,5.8,4.5,8.7,9.2,8.7c5,0,9.1-3.1,9-8.5C172.8,42.5,168.9,39.4,163.7,39.3z M163.8,52.3
	c-1.4,0-2.4-1.8-2.4-4.4c0-2.4,1-4.3,2.3-4.3c1.6,0,2.4,1.9,2.4,4.4C166.1,50.4,165.3,52.3,163.8,52.3z M193,46.3
	c0-3.4-1.1-7.2-6.2-7.2c-2.1,0-3.7,1.2-4.8,2.7l-0.9-1.9H174v4h1v8h-1v4h10v-4h-2v-4.8c0-1.4,0.4-3,2.1-3c1.9,0,1.9,1.9,1.9,3V56h8
	v-4h-1V46.3z"/>
<path class="st1" d="M52.6,0H7.1C3.2,0,0,2.6,0,6.5v45.4C0,55.8,3.2,59,7.1,59h45.5c3.9,0,7.4-3.2,7.4-7.1V6.5C60,2.6,56.5,0,52.6,0
	z M14.8,8h30.1c3.6,0,7.1,2.5,7.1,6.1v0.7c-3-2.7-7.2-3.6-12.5-2.2c-7.5,2-11.4,8.7-9.3,16.4l-10.5,2.8l1,3.9l2.2-0.6l0.4,1.5
	c-0.3,1.1-0.9,2.1-3,2.7c-3.2,0.8-5.8-1.6-6.8-5.3c-1-3.6,0.2-7.3,3.2-8.1c2.2-0.6,4.5,0.6,5.4,3.5l6.5-1.7l-2.9-10.7l-5.4,1.4
	l-0.1,2.8c-0.7-0.4-2.8-2.5-8.1-1.1C10.6,20.4,9,21.2,8,22.2v-8C8,10.5,11.2,8,14.8,8z M45.3,33.4c-2.3,0.6-4.9-1.9-6.1-6.7
	c-1.2-4.5-0.5-8.1,1.7-8.6c2.8-0.7,5,2.4,6.1,6.8C48.2,29.4,47.6,32.8,45.3,33.4z M44.9,51H14.8C11.2,51,8,47.9,8,44.3v-1.4
	c3,3,7.3,4.2,11.4,3.1c2.8-0.7,4.8-2.6,5.2-4.2l1.8,2l7.3-1.9l-2.4-9l0.2,0c3.1,6.2,9,8,15.4,6.3c1.9-0.5,3.1-1.3,5.1-2.2v7.4
	C52,47.9,48.5,51,44.9,51z"/>
</svg>
